# xmcd
#
# Track frame offsets:
#	150
#	20297
#	36665
#	50139
#	72050
#	88426
#	102425
#	115256
#	131624
#	140880
#	159349
#
# Disc length: 2367 seconds
#
# Revision: 0
# Processed by: cddbd v1.5.2PL0 Copyright (c) Steve Scherf et al.
# Submitted via: audiograbber 1.83.01
#
DISCID=a4093d0b
DTITLE=John Denver - Farewell Andromeda
DYEAR=1900
DGENRE=Oldies
TTITLE0=I'd Rather Be A Cowboy (Lady's Chains)
TTITLE1=Berkeley Woman
TTITLE2=Please, Daddy
TTITLE3=Angels From Montgomery
TTITLE4=River Of Love
TTITLE5=Rocky Mountain Suite (Cold Nights In Canada)
TTITLE6=Whiskey Basin Blues
TTITLE7=Sweet Misery
TTITLE8=Zachary And Jennifer
TTITLE9=We Don't Live Here No More
TTITLE10=Farewell Andromeda (Welcome To My Morning)
EXTD=
EXTT0=
EXTT1=
EXTT2=
EXTT3=
EXTT4=
EXTT5=
EXTT6=
EXTT7=
EXTT8=
EXTT9=
EXTT10=
PLAYORDER=
